<?xml version="1.0" encoding="UTF-8"?>
<svg id="Livello_2" data-name="Livello 2" xmlns="http://www.w3.org/2000/svg" viewBox="0 0 758.12 220.1">
  <g id="Capa_1" data-name="Capa 1">
    <g id="Imagotipo_Original" data-name="Imagotipo Original">
      <g>
        <path d="M336.6,110.7c4.8-3,10.7-6.6,15.6-9.3,2.5-1.4,4.2-3.8,2.8-6.1-1.5-2.5-4.4-1.8-6.1-.8-5.3,3-8.1,4.7-13.1,7.5-4,2.2-6.1,2.9-7.2.8-1.2-2.4,1.9-4.4,10.1-9.3,6.4-3.8,7.4-4.2,16-9.3,8-4.7,8.1-20.9-.9-26.7-8.3-5.3-18.3-5.7-27.9-3.1-13.7,3.7-16.6,17.1-18.1,28.8-1.3,10.1-1.5,15.6-1.4,24.7.2,11.1.5,20.4,2.8,32.5,2.1,11.1,6.5,24.9,17.2,24.9h15c3.4,0,5.5-4.2,7.1-6.5,8.6-12.6,11-36.2,6.1-43.5-1.5-2.3-5.9-2.3-7.2.1-3.1,5.7.8,13.5-1.8,19.7-1.7,4.8-8.4,7.9-13.4,5.1-5.3-3-7-11.7-4.4-18.7,0,0,2.1-6.6,8.7-10.8h.1ZM324.5,90.8c-3.9-1.9-2.9-18-.8-20.8,4.4-5.7,20.3,5.4,18.6,12.4-.5,1.9-1.9,2.9-2.8,3.5-5.4,3.5-11.4,6.9-15.1,4.9h.1Z" style="fill: #fff;"/>
        <path d="M412.2,128.1c-.7,8.6-1.3,15.8-3.8,23.6-1.2,3.9-4.4,8.8-8,11.3-5.7,3.8-14,3.4-19.3,1-11.2-5.2-12.9-24.6-14.4-36.1-1.9-14.7-2.7-30.5-2-41.8.4-7.2,2-15.2,3.9-20.8,1.1-3.4,3-7.3,6.1-9.7,3-2.2,8.2-3,12.3-3,6.5,0,17.5.5,25,4.9,9.4,5.5,3.2,19.8-4.3,26.7-3.9,3.6-8.9,7.9-12.9,10.8-2.9,2.1-5.6,3.8-7.3,3.1-3.3-1.4-2.7-4.5-1.1-7.5,2.5-4.9,13.4-12.4,7.2-20-2.4-2.9-6.9-4.1-9.8-2.8-3.6,1.6-5.6,8.2-6.4,12.6-2,11.6-2.2,20.3-.5,31.6,1.4,9.3,5.1,17.7,10.1,21.3,2.9,2.1,7.2,2.2,9.3,0,3.9-4,5.1-10.3,4.1-15.6-.9-4.7-.7-11.2,5.2-9.9.6.1,1.2.4,1.8.8,1.8,1.5,5.8,6.3,4.7,19.5h.1Z" style="fill: #fff;"/>
        <path d="M584.7,128.1c-.7,8.6-1.3,15.8-3.8,23.6-1.2,3.9-4.4,8.8-8,11.3-5.7,3.8-14,3.4-19.3,1-11.2-5.2-12.9-24.6-14.4-36.1-1.9-14.7-2.7-30.5-2-41.8.4-7.2,2-15.2,3.9-20.8,1.1-3.4,3-7.3,6.1-9.7,3-2.2,8.2-3,12.3-3,6.5,0,17.5.5,25,4.9,9.4,5.5,3.2,19.8-4.3,26.7-3.9,3.6-8.9,7.9-12.9,10.8-2.9,2.1-5.6,3.8-7.3,3.1-3.3-1.4-2.7-4.5-1.1-7.5,2.5-4.9,13.4-12.4,7.2-20-2.4-2.9-6.9-4.1-9.8-2.8-3.6,1.6-5.6,8.2-6.3,12.6-2,11.6-2.2,20.3-.5,31.6,1.4,9.3,5.1,17.7,10.1,21.3,2.9,2.1,7.2,2.2,9.3,0,3.9-4,5.1-10.3,4.1-15.6-.8-4.7-.7-11.2,5.2-9.9.6.1,1.2.4,1.8.8,1.8,1.5,5.8,6.3,4.7,19.5h0Z" style="fill: #fff;"/>
        <path d="M423.7,54c3.9-1.9,10.3-1,13.7,2.1,4.9,4.4,5.1,10,5.8,15.4,1.6,12.9,4,23.8,11.2,27.4,6,3,10-4.2,7.9-10.3-2.3-6.5-7.4-11.7-11.1-17.6-3.8-6-3.8-11.6,1.4-16.1,4.4-3.8,12.7-2,15.3,1.8,4.1,5.7,3.3,17.5,3.2,25.2-.2,13.3-.2,66.7-.5,78.2,0,4.8-5.2,5.7-9.9,5.7-13.6-.1-9.3-13.9-9.6-27.7-.2-10.7-2.9-22.6-7.9-32.5-2.8-4.8-8.4-8.9-8.4-5,0,15.5.1,48,.5,58.5.1,3.6-1.4,6-4.6,6.5-6.7,1.1-11.6-1.6-10.7-10,2.4-22.7,3.5-40.9,1.8-61.5-.8-9.9-1.6-19.4-2.1-28.7,0,0-.5-9.2,4-11.3v-.1Z" style="fill: #fff;"/>
        <path d="M530.5,78c-1.1-10-3.2-19.7-13.7-23.7-7.8-2.9-17.2-1.7-21.6.4-5.1,2.4-8.4,6.5-10.5,12.1-6.1,16.2-5.3,43.1-2.1,62.7,2.2,13.5,6.2,34,16.7,35.8,3.5.6,10.4.8,14.1-.5,3.1-1.1,5.1-3.4,6.3-5.7,4.4-7.7,7.8-20.6,9.3-31.4,1.8-12.5,2-21,2-36.4,0-3.4-.3-9.8-.7-13.3h.2ZM519.8,104.4c-.4,5.5-.7,9.2-1.5,15.3-.7,4.9-.8,11.4-4.3,13.9-4.9,3.6-7.4-2.3-9.5-8.9-1.1-3.5-2-6.5-2.6-9.4-.5-2.8-.5-4.8-3.2-7.7-2.9-3-6.9-4.2-7.5-9.8-1.1-10.5,2.2-28,11.8-26.7,15.5,2.1,17.3,18.2,17.1,27,0,1.6-.2,4.7-.3,6.3h0Z" style="fill: #fff;"/>
        <path d="M640.2,88.4c-2.5-13.4-5.4-20.7-10.3-28-4.5-6.7-8.2-7.7-13.8-7.8-4.5-.1-10.3,2.1-13.9,12.5-11.2,32-11.7,59.4-12.5,91.9,0,3.6.6,8.3,3.5,8.5,4.7.2,6.6-1.3,6.6-8.8,0-5.5-1-11.5,1.4-16,3.4-6.1,11.8-9.2,17.8-9,4.2.1,5.3,3.6,3.5,7.6-2.7,5.9-7.5,8.7-7.3,17.6,0,1.9.5,6,3.1,7.4,3,1.6,7.8,1.1,14.5,1.1s7.6-.8,8.3-5.9c2.4-17.6,5.3-37.9-.9-71.1h0ZM605.2,93.5c.7-3.9,2.2-7.9,3.2-9.6,2.6-4.1,5.6-7.4,8.5-1.4,3.1,6.5,3.9,12,4.6,18.1.6,5.3,1,7.6-2.7,9-16.4,6.1-16.5,3.1-14.6-10.9M605.3,125.8c-2.3.6-3.9-1.3-1.6-3.1,4.1-3.3,7.8-4.7,13.8-5.7,2.2-.4,4.4-.1,4.9,0,3.4.5,2.9,3.7.8,4.2" style="fill: #fff;"/>
        <path d="M754.4,88.4c-2.5-13.4-5.4-20.7-10.3-28-4.5-6.7-8.2-7.7-13.8-7.8-4.5-.1-10.3,2.1-13.9,12.5-11.2,32-11.7,59.4-12.5,91.9,0,3.6.6,8.3,3.5,8.5,4.7.2,6.6-1.3,6.6-8.8,0-5.5-1-11.5,1.4-16,3.4-6.1,11.8-9.2,17.8-9,4.2.1,5.3,3.6,3.5,7.6-2.7,5.9-7.5,8.7-7.3,17.6,0,1.9.5,6,3.1,7.4,3,1.6,7.8,1.1,14.5,1.1s7.6-.8,8.3-5.9c2.4-17.6,5.3-37.9-.9-71.1h0ZM719.4,93.5c.7-3.9,2.2-7.9,3.2-9.6,2.6-4.1,5.6-7.4,8.5-1.4,3.1,6.5,3.9,12,4.6,18.1.6,5.3,1,7.6-2.7,9-16.4,6.1-16.5,3.1-14.6-10.9M719.5,125.8c-2.3.6-3.9-1.3-1.6-3.1,4.1-3.3,7.8-4.7,13.8-5.7,2.2-.4,4.4-.1,4.9,0,3.4.5,2.9,3.7.8,4.2" style="fill: #fff;"/>
        <path d="M694.3,55.5c12.8,3,8,20.5,1.7,26.9-5.1,5.3-15.2,5.6-12.3-2.4.6-1.6,1.2-3.7,1.8-6,2.2-8.6-13.4-14.7-20.4-10.3-4.4,3.2-3.7,7.9-1,11.9,2.8,4,6.4,7.3,9.4,10,9,8,18.4,16.3,23.4,27.6,3.4,7.7,3.7,16.2,3.2,23.8-.9,14.4-2.6,21.5-8.2,25.6-3.2,2.4-11.7,2.9-17.6,2.8-15.3-.2-22.8-2.6-25.4-13.8-2.4-10.4-1.1-21.6,2-32.1.9-3,2.5-6.5,5.1-8.3,8.7-4.7,16.3,11.9,18.8,18.6,2,5.6,6.3,14.3,1.9,15.9-3.5,1.2-5.3-2.6-6.8-6.3s-5.4-5.7-7.9-1.5c-3.2,5.1-4.3,13.4.8,17.5,6.2,5,17.1,1.7,21.6-4.6,5.5-7.7,4.9-21.7-1.8-29.6-4.2-5-8.3-8.4-14-14.4s-8.9-10-12.7-17.9c-5-10.3-10.5-29.3.9-33.6,0,0,11-6.1,37.6.1l-.1.1Z" style="fill: #fff;"/>
        <path d="M238.6,64.5c.7-6.4,2.9-12,9.4-11.9,12.3.2,13.7,0,23.9,0h21.2c10.8,0,12.9,18.4,10.9,26.8-2.2,9.4-8.3,20.6-12.3,18.5-.8-.4-2.2-1.2-2.4-3.8-.5-7.1,5.9-16-.2-22.2-1.8-1.8-5.7-3.9-7.7-1.1-1.8,2.5.3,9.1.6,12.5.6,7.3.6,13,0,20.3-1.7,18.9-2.3,38.5.5,57.3.2,3.1-.6,4.3-3.5,4.4-3.5,0-11.1.1-15.1.1-3.2,0-4.1-.3-5.6-1.9-3-3.7-2.8-10-2.4-14.6.6-8.9,3.4-17.9,5.5-27.6,1.2-5.4,10.1-37.5,3.9-45.9-1.5-2-3.7-3.6-7.3-2.2-3.3,1.3-3.6,5.6-2.5,8.8,1.2,4.2,5.9,7.8,4.5,11.9-1.9,5.5-7.4,2.7-10.5,0-.5-.4-.9-.8-1.4-1.3-2.7-2.9-10.9-13.9-9.4-28.1h-.1Z" style="fill: #fff;"/>
        <g>
          <path d="M114.5,220.1c32.8,0,59.4-26.6,59.4-59.4s-26.6-59.4-59.4-59.4-59.4,26.6-59.4,59.4,26.6,59.4,59.4,59.4" style="fill: #fff;"/>
          <polygon points="0 115.1 114.5 0 228.9 115.6 193.6 149.9 114.2 70.1 35.4 149.4 0 115.1" style="fill: #fff;"/>
        </g>
      </g>
      <g>
        <path d="M414.8,195.1v4h8.1v4h-8.1v6.3h-5.2v-18.4h14.4v4h-9.2v.1Z" style="fill: #fff;"/>
        <path d="M434.6,204.6h-2.8v4.9h-5.2v-18.4h8.4c1.7,0,3.1.3,4.3.8s2.2,1.3,2.8,2.4c.7,1,1,2.2,1,3.6s-.3,2.5-.9,3.5-1.5,1.8-2.7,2.3l4,5.8h-5.6l-3.3-4.9h0ZM437,195.9c-.5-.5-1.4-.7-2.4-.7h-2.9v5.4h2.9c1.1,0,1.9-.2,2.4-.7s.8-1.1.8-2-.3-1.5-.8-2Z" style="fill: #fff;"/>
        <path d="M458.3,205.9h-7.8l-1.5,3.6h-5.3l8.1-18.4h5.1l8.1,18.4h-5.4l-1.4-3.6h.1ZM456.8,202.1l-2.4-5.9-2.4,5.9h4.8Z" style="fill: #fff;"/>
        <path d="M484.1,191.1v18.4h-4.3l-8.1-9.8v9.8h-5.1v-18.4h4.3l8.1,9.8v-9.8h5.1Z" style="fill: #fff;"/>
        <path d="M491.8,208.6c-1.5-.8-2.7-2-3.6-3.4s-1.3-3.1-1.3-4.9.4-3.5,1.3-4.9c.9-1.4,2.1-2.6,3.6-3.4s3.3-1.2,5.2-1.2,3.2.3,4.5.9c1.3.6,2.5,1.5,3.4,2.6l-3.3,3c-1.2-1.4-2.6-2.2-4.3-2.2s-1.9.2-2.7.7c-.8.4-1.4,1.1-1.8,1.9-.4.8-.6,1.7-.6,2.8s.2,2,.6,2.8,1,1.4,1.8,1.9c.8.4,1.7.7,2.7.7,1.7,0,3.1-.7,4.3-2.2l3.3,3c-.9,1.1-2,2-3.4,2.6-1.3.6-2.9.9-4.5.9-1.9,0-3.6-.4-5.2-1.2v-.4Z" style="fill: #fff;"/>
        <path d="M524.7,191.1v18.4h-5.2v-7.2h-7.1v7.2h-5.2v-18.4h5.2v6.9h7.1v-6.9h5.2Z" style="fill: #fff;"/>
        <path d="M528.4,191.1h5.2v18.4h-5.2v-18.4h0Z" style="fill: #fff;"/>
        <path d="M539.4,209.3c-1.4-.4-2.5-.9-3.4-1.5l1.7-3.8c.8.5,1.8,1,2.9,1.3s2.2.5,3.2.5c2,0,3-.5,3-1.5s-.3-.9-.8-1.2-1.5-.5-2.8-.8c-1.4-.3-2.5-.6-3.5-1s-1.7-.9-2.4-1.6c-.7-.8-1-1.8-1-3s.3-2.1.9-3c.6-.9,1.5-1.6,2.8-2.1,1.2-.5,2.7-.8,4.5-.8s2.4.1,3.6.4,2.2.7,3.1,1.2l-1.6,3.9c-1.8-.9-3.5-1.4-5.1-1.4s-1.8.1-2.3.5c-.5.3-.7.7-.7,1.2s.3.9.8,1.1,1.5.5,2.7.8c1.4.3,2.6.6,3.5,1s1.7.9,2.4,1.6,1,1.8,1,3-.3,2.1-.9,3-1.5,1.6-2.8,2.1c-1.2.5-2.7.8-4.5.8-1.5,0-2.9-.2-4.3-.5v-.2Z" style="fill: #fff;"/>
        <path d="M554.3,191.1h5.2v18.4h-5.2v-18.4h0Z" style="fill: #fff;"/>
        <path d="M580.7,191.1v18.4h-4.3l-8.1-9.8v9.8h-5.1v-18.4h4.3l8.1,9.8v-9.8h5.1Z" style="fill: #fff;"/>
        <path d="M596.7,199.9h4.6v7.6c-1,.8-2.3,1.3-3.6,1.7-1.4.4-2.7.6-4.1.6s-3.7-.4-5.2-1.2c-1.5-.8-2.8-2-3.6-3.4s-1.3-3.1-1.3-4.9.4-3.5,1.3-4.9c.9-1.4,2.1-2.6,3.7-3.4s3.3-1.2,5.3-1.2,3.3.3,4.6.9,2.5,1.4,3.4,2.5l-3.3,3c-1.2-1.4-2.7-2.1-4.5-2.1s-2.8.5-3.8,1.4c-1,1-1.4,2.2-1.4,3.8s.2,1.9.7,2.7,1,1.4,1.8,1.9,1.7.7,2.7.7,1.9-.2,2.8-.6v-5.1h-.1Z" style="fill: #fff;"/>
        <path d="M629.7,191.1v18.4h-4.3l-8.1-9.8v9.8h-5.1v-18.4h4.3l8.1,9.8v-9.8h5.1Z" style="fill: #fff;"/>
        <path d="M648.2,205.5v4h-14.8v-18.4h14.4v4h-9.3v3.1h8.2v3.9h-8.2v3.4h9.7Z" style="fill: #fff;"/>
        <path d="M655,195.2h-5.7v-4.1h16.5v4.1h-5.6v14.3h-5.2v-14.3h0Z" style="fill: #fff;"/>
        <path d="M696.2,191.1l-6,18.4h-5.6l-3.5-11.2-3.7,11.2h-5.6l-6-18.4h5.4l3.7,11.8,3.9-11.8h4.8l3.7,11.9,3.9-11.9h5,0Z" style="fill: #fff;"/>
        <path d="M701.8,208.6c-1.5-.8-2.8-2-3.7-3.4-.9-1.5-1.3-3.1-1.3-4.9s.4-3.5,1.3-4.9c.9-1.4,2.1-2.6,3.7-3.4,1.5-.8,3.3-1.2,5.2-1.2s3.7.4,5.2,1.2,2.8,2,3.7,3.4c.9,1.5,1.3,3.1,1.3,4.9s-.4,3.5-1.3,4.9c-.9,1.5-2.1,2.6-3.7,3.4-1.5.8-3.3,1.2-5.2,1.2s-3.7-.4-5.2-1.2ZM709.6,204.9c.8-.4,1.3-1,1.8-1.9.4-.8.7-1.7.7-2.8s-.2-2-.7-2.8-1-1.4-1.8-1.9c-.8-.4-1.6-.7-2.5-.7s-1.8.2-2.5.7-1.3,1.1-1.8,1.9c-.4.8-.7,1.7-.7,2.8s.2,2,.7,2.8,1,1.4,1.8,1.9c.8.4,1.6.7,2.5.7s1.8-.2,2.5-.7Z" style="fill: #fff;"/>
        <path d="M728.1,204.6h-2.8v4.9h-5.2v-18.4h8.4c1.7,0,3.1.3,4.3.8s2.2,1.3,2.8,2.4c.7,1,1,2.2,1,3.6s-.3,2.5-.9,3.5-1.5,1.8-2.7,2.3l4,5.8h-5.6l-3.3-4.9h0ZM730.5,195.9c-.5-.5-1.3-.7-2.4-.7h-2.9v5.4h2.9c1.1,0,1.9-.2,2.4-.7s.8-1.1.8-2-.3-1.5-.8-2Z" style="fill: #fff;"/>
        <path d="M746.6,202.8l-1.9,2.1v4.6h-5.2v-18.4h5.2v7.7l7.1-7.6h5.7l-7.5,8.1,7.9,10.2h-6l-5.3-6.7h0Z" style="fill: #fff;"/>
      </g>
    </g>
  </g>
</svg>